<?xml version="1.0" encoding="utf-8"?><svg viewBox="0 0 16 16" xmlns="http://www.w3.org/2000/svg" xmlns:xlink="http://www.w3.org/1999/xlink"><style>:root>svg{display:none}:root>svg:target{display:block}</style><svg fill="none" viewBox="0 0 16 16" id="Instagram" xmlns="http://www.w3.org/2000/svg"><path d="M14.653 5.253c-.03-.708-.145-1.195-.31-1.617-.169-.448-.43-.85-.77-1.183a3.281 3.281 0 00-1.18-.768c-.425-.164-.91-.279-1.618-.31-.713-.034-.94-.042-2.75-.042s-2.037.008-2.748.04c-.709.03-1.196.145-1.618.31-.448.169-.849.429-1.182.77a3.283 3.283 0 00-.769 1.18c-.164.425-.278.91-.31 1.618-.033.713-.041.94-.041 2.75s.008 2.037.039 2.748c.031.709.146 1.196.31 1.618.17.448.432.849.77 1.182.334.339.738.602 1.18.769.425.164.91.278 1.618.31.711.03.938.038 2.748.038 1.81 0 2.037-.007 2.748-.039.709-.03 1.196-.145 1.617-.31a3.41 3.41 0 001.951-1.95c.164-.425.28-.91.31-1.618.032-.71.04-.938.04-2.748 0-1.81-.003-2.037-.035-2.748zm-1.2 5.444c-.029.651-.138 1.003-.23 1.237a2.212 2.212 0 01-1.265 1.266c-.235.091-.589.2-1.238.23-.703.03-.914.038-2.693.038s-1.992-.007-2.693-.039c-.651-.028-1.003-.138-1.237-.229a2.051 2.051 0 01-.766-.497 2.073 2.073 0 01-.497-.766c-.092-.234-.201-.589-.23-1.237-.031-.704-.039-.915-.039-2.694s.008-1.992.04-2.693c.028-.65.137-1.003.229-1.237.106-.29.276-.552.5-.766a2.07 2.07 0 01.765-.497c.235-.091.59-.2 1.238-.23.703-.03.914-.039 2.693-.039 1.781 0 1.992.008 2.693.04.651.028 1.003.138 1.237.229.29.106.552.276.766.497.221.216.39.477.498.766.09.234.2.589.229 1.237.031.703.039.914.039 2.693 0 1.78-.008 1.988-.04 2.691z" fill="#fff"/><path d="M8.025 4.576a3.426 3.426 0 10.001 6.852 3.426 3.426 0 00-.001-6.852zm0 5.647a2.222 2.222 0 110-4.444 2.222 2.222 0 010 4.444zM12.385 4.44a.8.8 0 11-1.6 0 .8.8 0 011.6 0z" fill="#fff"/></svg><svg fill="none" viewBox="0 0 16 16" id="facebook" xmlns="http://www.w3.org/2000/svg"><path d="M11.709.67L9.857.667c-2.08 0-3.424 1.416-3.424 3.61V5.94H4.57a.295.295 0 00-.291.3v2.41c0 .166.13.3.291.3h1.862v6.084c0 .166.13.3.29.3h2.43c.16 0 .29-.135.29-.3V8.95h2.178c.16 0 .29-.134.29-.3l.002-2.41c0-.08-.031-.156-.086-.212a.287.287 0 00-.206-.088H9.444V4.53c0-.678.157-1.023 1.017-1.023h1.247c.161 0 .291-.134.291-.3V.97a.295.295 0 00-.29-.3z" fill="#fff"/></svg><svg fill="none" viewBox="0 0 16 16" id="twitter" xmlns="http://www.w3.org/2000/svg"><path d="M15 3.848a5.935 5.935 0 01-1.65.433 2.786 2.786 0 001.263-1.52 5.948 5.948 0 01-1.825.668 2.924 2.924 0 00-2.096-.869c-1.586 0-2.872 1.231-2.872 2.75 0 .215.026.425.075.626-2.387-.115-4.503-1.21-5.92-2.873a2.64 2.64 0 00-.388 1.382c0 .954.507 1.796 1.277 2.288a2.97 2.97 0 01-1.3-.345v.035c0 1.331.99 2.443 2.303 2.696a3.03 3.03 0 01-.757.096c-.185 0-.365-.017-.54-.05.365 1.092 1.425 1.887 2.682 1.91a5.926 5.926 0 01-3.567 1.174A6.37 6.37 0 011 12.212a8.381 8.381 0 004.402 1.237c5.283 0 8.171-4.19 8.171-7.824l-.01-.356A5.608 5.608 0 0015 3.85z" fill="#fff"/></svg></svg>